<svg width="326" height="162" viewBox="0 0 326 162" fill="none" xmlns="http://www.w3.org/2000/svg">
<path d="M8.892 97L0.836 31.64H13.3L18.088 76.1L22.344 31.64H34.808L26.752 97H8.892ZM36.765 97V31.716H49.381V97H36.765ZM53.4518 97V31.716H66.9038L72.9078 62.952V31.716H85.5238V97H72.7558L66.2198 64.32V97H53.4518ZM89.5553 97V31.716H102.171V97H89.5553ZM121.442 97.608C116.679 97.608 112.854 96.1133 109.966 93.124C107.129 90.1347 105.71 86.0307 105.71 80.812V50.716C105.71 44.2307 107.002 39.3413 109.586 36.048C112.17 32.7547 116.223 31.108 121.746 31.108C126.559 31.108 130.435 32.4253 133.374 35.06C136.313 37.6947 137.782 41.4947 137.782 46.46V57.708H124.786V48.056C124.786 46.1813 124.558 44.8893 124.102 44.18C123.646 43.4707 122.861 43.116 121.746 43.116C120.581 43.116 119.77 43.5213 119.314 44.332C118.909 45.1427 118.706 46.3333 118.706 47.904V80.66C118.706 82.3827 118.959 83.6493 119.466 84.46C119.973 85.22 120.733 85.6 121.746 85.6C123.773 85.6 124.786 83.9533 124.786 80.66V68.88H137.934V81.192C137.934 92.136 132.437 97.608 121.442 97.608ZM140.49 97V31.716H153.106V97H140.49ZM172.301 97.608C166.93 97.608 162.928 96.088 160.293 93.048C157.709 90.008 156.417 85.4987 156.417 79.52V31.716H169.109V78.988C169.109 81.0653 169.312 82.6867 169.717 83.852C170.122 85.0173 170.984 85.6 172.301 85.6C173.618 85.6 174.48 85.0427 174.885 83.928C175.29 82.7627 175.493 81.116 175.493 78.988V31.716H188.185V79.52C188.185 85.4987 186.868 90.008 184.233 93.048C181.649 96.088 177.672 97.608 172.301 97.608ZM207.537 97.608C201.609 97.608 197.328 96.1387 194.693 93.2C192.058 90.2613 190.741 85.524 190.741 78.988V72.604H203.585V80.736C203.585 83.9787 204.624 85.6 206.701 85.6C207.866 85.6 208.677 85.2707 209.133 84.612C209.589 83.9027 209.817 82.7373 209.817 81.116C209.817 78.988 209.564 77.24 209.057 75.872C208.55 74.4533 207.892 73.288 207.081 72.376C206.321 71.4133 204.928 69.944 202.901 67.968L197.277 62.344C192.92 58.088 190.741 53.376 190.741 48.208C190.741 42.6347 192.008 38.404 194.541 35.516C197.125 32.5773 200.874 31.108 205.789 31.108C211.666 31.108 215.897 32.6787 218.481 35.82C221.065 38.9107 222.357 43.7747 222.357 50.412H209.057L208.981 45.928C208.981 45.0667 208.728 44.3827 208.221 43.876C207.765 43.3693 207.106 43.116 206.245 43.116C205.232 43.116 204.472 43.3947 203.965 43.952C203.458 44.5093 203.205 45.2693 203.205 46.232C203.205 48.36 204.421 50.564 206.853 52.844L214.453 60.14C216.226 61.8627 217.696 63.5093 218.861 65.08C220.026 66.6 220.964 68.424 221.673 70.552C222.382 72.6293 222.737 75.112 222.737 78C222.737 84.4347 221.546 89.324 219.165 92.668C216.834 95.9613 212.958 97.608 207.537 97.608ZM2.888 95.716H20.596C25.3587 95.716 28.804 96.8813 30.932 99.212C33.1107 101.543 34.2 105.343 34.2 110.612V113.5C34.2 119.732 31.9707 123.456 27.512 124.672C30.248 125.381 32.1733 127.028 33.288 129.612C34.4027 132.196 34.96 135.616 34.96 139.872C34.96 146.813 33.9213 152.083 31.844 155.68C29.7667 159.227 26.0173 161 20.596 161H2.888V95.716ZM18.316 120.264C19.4307 120.264 20.1907 119.859 20.596 119.048C21.0013 118.187 21.204 116.996 21.204 115.476V108.94C21.204 106.812 20.2667 105.748 18.392 105.748H15.656V120.264H18.316ZM16.948 149.524C20.3427 149.524 22.04 147.903 22.04 144.66V136.528C22.04 134.552 21.736 133.057 21.128 132.044C20.5707 131.031 19.5573 130.524 18.088 130.524H15.656V149.448L16.948 149.524ZM53.6952 161.608C48.4259 161.608 44.4232 160.012 41.6872 156.82C38.9512 153.577 37.5832 149.043 37.5832 143.216V112.132C37.5832 106.508 38.9512 102.277 41.6872 99.44C44.4232 96.552 48.4259 95.108 53.6952 95.108C58.9645 95.108 62.9672 96.552 65.7032 99.44C68.4392 102.277 69.8072 106.508 69.8072 112.132V143.216C69.8072 149.093 68.4392 153.628 65.7032 156.82C62.9672 160.012 58.9645 161.608 53.6952 161.608ZM53.6952 149.6C54.8605 149.6 55.6459 149.093 56.0512 148.08C56.4565 147.067 56.6592 145.648 56.6592 143.824V111.904C56.6592 110.485 56.4565 109.345 56.0512 108.484C55.6965 107.572 54.9365 107.116 53.7712 107.116C51.5925 107.116 50.5032 108.763 50.5032 112.056V143.9C50.5032 145.775 50.7312 147.193 51.1872 148.156C51.6432 149.119 52.4792 149.6 53.6952 149.6ZM73.9361 95.716H94.0001C97.1921 95.716 99.6495 96.4507 101.372 97.92C103.145 99.3387 104.336 101.365 104.944 104C105.552 106.584 105.856 109.903 105.856 113.956C105.856 117.655 105.375 120.543 104.412 122.62C103.449 124.697 101.777 126.141 99.3961 126.952C101.372 127.357 102.791 128.345 103.652 129.916C104.564 131.487 105.02 133.615 105.02 136.3L104.868 161H92.1001V135.464C92.1001 133.64 91.7455 132.475 91.0361 131.968C90.3268 131.461 89.0348 131.208 87.1601 131.208V161H73.9361V95.716ZM90.3521 119.884C92.1761 119.884 93.0881 117.908 93.0881 113.956C93.0881 112.233 93.0121 110.941 92.8601 110.08C92.7081 109.219 92.4295 108.636 92.0241 108.332C91.6188 107.977 91.0361 107.8 90.2761 107.8H87.2361V119.884H90.3521ZM114.639 161V108.256H106.887V95.716H135.463V108.256H127.711V161H114.639ZM153.588 161.608C148.318 161.608 144.316 160.012 141.58 156.82C138.844 153.577 137.476 149.043 137.476 143.216V112.132C137.476 106.508 138.844 102.277 141.58 99.44C144.316 96.552 148.318 95.108 153.588 95.108C158.857 95.108 162.86 96.552 165.596 99.44C168.332 102.277 169.7 106.508 169.7 112.132V143.216C169.7 149.093 168.332 153.628 165.596 156.82C162.86 160.012 158.857 161.608 153.588 161.608ZM153.588 149.6C154.753 149.6 155.538 149.093 155.944 148.08C156.349 147.067 156.552 145.648 156.552 143.824V111.904C156.552 110.485 156.349 109.345 155.944 108.484C155.589 107.572 154.829 107.116 153.664 107.116C151.485 107.116 150.396 108.763 150.396 112.056V143.9C150.396 145.775 150.624 147.193 151.08 148.156C151.536 149.119 152.372 149.6 153.588 149.6ZM173.829 161V95.716H186.901V149.904H200.353V161H173.829ZM202.896 161V95.716H229.04V108.332H216.196V121.024H228.508V133.336H216.196V148.308H229.876V161H202.896ZM238.7 161V108.256H230.948V95.716H259.524V108.256H251.772V161H238.7ZM267.693 161V108.256H259.941V95.716H288.517V108.256H280.765V161H267.693ZM306.642 161.608C301.372 161.608 297.37 160.012 294.634 156.82C291.898 153.577 290.53 149.043 290.53 143.216V112.132C290.53 106.508 291.898 102.277 294.634 99.44C297.37 96.552 301.372 95.108 306.642 95.108C311.911 95.108 315.914 96.552 318.65 99.44C321.386 102.277 322.754 106.508 322.754 112.132V143.216C322.754 149.093 321.386 153.628 318.65 156.82C315.914 160.012 311.911 161.608 306.642 161.608ZM306.642 149.6C307.807 149.6 308.592 149.093 308.998 148.08C309.403 147.067 309.606 145.648 309.606 143.824V111.904C309.606 110.485 309.403 109.345 308.998 108.484C308.643 107.572 307.883 107.116 306.718 107.116C304.539 107.116 303.45 108.763 303.45 112.056V143.9C303.45 145.775 303.678 147.193 304.134 148.156C304.59 149.119 305.426 149.6 306.642 149.6Z" fill="#F7FAFC"/>
<path d="M9.96094 8.66553C9.96094 8.47217 9.9082 8.34033 9.80273 8.27002C9.70605 8.19092 9.58301 8.15576 9.43359 8.16455C9.28418 8.17334 9.12158 8.2085 8.9458 8.27002C8.77002 8.32275 8.60742 8.38428 8.45801 8.45459L8.28662 8.09863C9.19189 7.65918 9.92578 7.35156 10.4883 7.17578C11.0596 7 11.4507 6.91211 11.6616 6.91211C11.7231 6.91211 11.7935 6.93848 11.8726 6.99121C11.9604 7.03516 12.0396 7.10107 12.1099 7.18896C12.1802 7.27686 12.2417 7.37793 12.2944 7.49219C12.3472 7.59766 12.3735 7.70752 12.3735 7.82178C12.3735 7.89209 12.2725 8.18652 12.0703 8.70508C11.8682 9.21484 11.6265 9.88721 11.3452 10.7222C11.1782 11.2144 10.9937 11.7549 10.7915 12.3438C10.5894 12.9326 10.374 13.5479 10.1455 14.1895C9.92578 14.8223 9.70166 15.4683 9.47314 16.1274C9.25342 16.7866 9.03809 17.4282 8.82715 18.0522C8.61621 18.6763 8.41406 19.2739 8.2207 19.8452C8.03613 20.4077 7.87354 20.9131 7.73291 21.3613C7.60107 21.8096 7.49561 22.1919 7.4165 22.5083C7.3374 22.8159 7.29785 23.0269 7.29785 23.1411C7.29785 23.2993 7.35938 23.3784 7.48242 23.3784C7.5791 23.3696 7.72412 23.3213 7.91748 23.2334C8.11084 23.1367 8.33057 22.9961 8.57666 22.8115C8.83154 22.627 9.104 22.4028 9.39404 22.1392C9.69287 21.8667 9.9917 21.5503 10.2905 21.1899L10.5806 21.4668C10.1938 21.9326 9.78076 22.3853 9.34131 22.8247C8.90186 23.2554 8.4668 23.6377 8.03613 23.9717C7.61426 24.3057 7.21436 24.5737 6.83643 24.7759C6.46729 24.978 6.15967 25.0791 5.91357 25.0791C5.79053 25.0791 5.68945 25.0264 5.61035 24.9209C5.53125 24.8066 5.46533 24.666 5.4126 24.499C5.36865 24.332 5.33789 24.1562 5.32031 23.9717C5.30273 23.7871 5.29395 23.6157 5.29395 23.4575C5.29395 23.3872 5.30273 23.3081 5.32031 23.2202C5.34668 23.1235 5.37305 23.0049 5.39941 22.8643C5.10938 23.1719 4.79297 23.4663 4.4502 23.7476C4.11621 24.02 3.79102 24.2617 3.47461 24.4727C3.16699 24.6748 2.89014 24.8374 2.64404 24.9604C2.38916 25.0747 2.20898 25.1318 2.10352 25.1318C2.00684 25.1318 1.93213 25.0879 1.87939 25C1.81787 24.9209 1.77393 24.8242 1.74756 24.71C1.7124 24.5869 1.69043 24.4639 1.68164 24.3408C1.66406 24.209 1.65527 24.0947 1.65527 23.998C1.65527 23.6904 1.69043 23.3389 1.76074 22.9434C1.83105 22.5479 1.91895 22.1392 2.02441 21.7173C2.12109 21.2954 2.23535 20.8823 2.36719 20.478C2.49023 20.0649 2.60889 19.6914 2.72314 19.3574C2.8374 19.0146 2.93848 18.729 3.02637 18.5005C3.11426 18.2632 3.17578 18.1094 3.21094 18.0391C3.36914 17.6963 3.61084 17.3535 3.93604 17.0107C4.26123 16.668 4.64355 16.334 5.08301 16.0088C5.52246 15.6836 6.00146 15.376 6.52002 15.0859C7.04736 14.7871 7.5835 14.519 8.12842 14.2817C8.37451 13.561 8.60742 12.8799 8.82715 12.2383C9.05566 11.5879 9.25342 11.0122 9.42041 10.5112C9.5874 10.0103 9.71924 9.59717 9.81592 9.27197C9.9126 8.94678 9.96094 8.74463 9.96094 8.66553ZM5.54443 22.0073C5.70264 21.5151 5.87402 20.9878 6.05859 20.4253C6.24316 19.854 6.43213 19.2695 6.62549 18.6719C6.82764 18.0742 7.03418 17.4678 7.24512 16.8525C7.45605 16.2373 7.6626 15.6309 7.86475 15.0332C7.61865 15.1035 7.37256 15.2046 7.12646 15.3364C6.88916 15.4595 6.7002 15.5737 6.55957 15.6792C6.33105 15.855 6.09814 16.1538 5.86084 16.5757C5.63232 16.9888 5.4126 17.459 5.20166 17.9863C4.99072 18.5049 4.79297 19.0454 4.6084 19.6079C4.43262 20.1704 4.27881 20.6978 4.14697 21.1899C4.01514 21.6733 3.90967 22.0864 3.83057 22.4292C3.76025 22.7632 3.7251 22.9609 3.7251 23.0225C3.7251 23.0928 3.72949 23.1587 3.73828 23.2202C3.75586 23.2729 3.7998 23.2993 3.87012 23.2993C3.94043 23.2993 4.0415 23.2642 4.17334 23.1938C4.30518 23.1235 4.4458 23.0312 4.59521 22.917C4.75342 22.7939 4.91602 22.6533 5.08301 22.4951C5.25 22.3369 5.40381 22.1743 5.54443 22.0073ZM11.0288 25.1846C10.8354 25.1846 10.6421 25.123 10.4487 25C10.2554 24.8682 10.0796 24.7056 9.92139 24.5122C9.76318 24.3101 9.63574 24.0903 9.53906 23.853C9.43359 23.6157 9.38086 23.3872 9.38086 23.1675C9.38086 22.9038 9.41602 22.605 9.48633 22.271C9.54785 21.937 9.63135 21.5898 9.73682 21.2295C9.8335 20.8691 9.94336 20.5132 10.0664 20.1616C10.1895 19.8101 10.3081 19.4893 10.4224 19.1992C10.5278 18.9004 10.6245 18.6455 10.7124 18.4346C10.7915 18.2236 10.8486 18.083 10.8838 18.0127C11.0596 17.5908 11.332 17.1821 11.7012 16.7866C12.0791 16.3911 12.4878 16.0396 12.9272 15.7319C13.3755 15.4243 13.8237 15.1782 14.272 14.9937C14.729 14.8091 15.1289 14.7168 15.4717 14.7168C15.7529 14.7168 15.9814 14.8706 16.1572 15.1782C16.333 15.4858 16.4209 15.8726 16.4209 16.3384C16.4209 16.5757 16.3638 16.8086 16.2495 17.0371C16.144 17.2656 16.0034 17.481 15.8276 17.6831C15.6606 17.8853 15.4761 18.0742 15.2739 18.25C15.0806 18.4258 14.896 18.5796 14.7202 18.7114L11.9648 20.8208C11.8066 21.4185 11.6748 21.9502 11.5693 22.416C11.4727 22.873 11.4243 23.1851 11.4243 23.3521C11.4243 23.6069 11.4595 23.8003 11.5298 23.9321C11.6001 24.064 11.7451 24.1299 11.9648 24.1299C12.4307 24.1299 12.9141 23.9014 13.415 23.4443C13.916 22.9785 14.4038 22.2358 14.8784 21.2163L15.2607 21.4668C15.0234 22.0205 14.7466 22.5259 14.4302 22.9829C14.1226 23.4399 13.7886 23.8311 13.4282 24.1562C13.0679 24.4814 12.6812 24.7363 12.2681 24.9209C11.8638 25.0967 11.4507 25.1846 11.0288 25.1846ZM14.5093 15.4683C14.3335 15.4683 14.1445 15.6045 13.9424 15.877C13.7402 16.1494 13.5381 16.5054 13.3359 16.9448C13.1338 17.3755 12.936 17.8677 12.7427 18.4214C12.5493 18.9663 12.3735 19.5112 12.2153 20.0562L14.4565 18.2764C14.562 17.8984 14.6587 17.5293 14.7466 17.1689C14.8345 16.7998 14.8784 16.5229 14.8784 16.3384C14.8784 16.2417 14.8696 16.145 14.8521 16.0483C14.8433 15.9429 14.8257 15.8462 14.7993 15.7583C14.7729 15.6704 14.7334 15.6001 14.6807 15.5474C14.6367 15.4946 14.5796 15.4683 14.5093 15.4683ZM20.7583 14.6377C20.9429 14.6377 21.1011 14.7036 21.2329 14.8354C21.3647 14.9585 21.4702 15.1211 21.5493 15.3232C21.6284 15.5254 21.6724 15.7583 21.6812 16.022C21.6987 16.2856 21.6768 16.5493 21.6152 16.813C21.5449 17.1294 21.4043 17.3887 21.1934 17.5908C20.9912 17.7842 20.7759 17.938 20.5474 18.0522C20.2837 18.1841 19.9937 18.2852 19.6772 18.3555C19.8618 18.0039 19.9761 17.7051 20.02 17.459C20.0728 17.2129 20.0991 16.98 20.0991 16.7603C20.0991 16.6724 20.0903 16.5845 20.0728 16.4966C20.064 16.3999 20.042 16.312 20.0068 16.2329C19.9805 16.1538 19.9409 16.0879 19.8882 16.0352C19.8354 15.9824 19.7739 15.9561 19.7036 15.9561C19.6245 15.9561 19.5278 15.9868 19.4136 16.0483C19.3081 16.1011 19.2026 16.1802 19.0972 16.2856C19.0005 16.3911 18.917 16.5186 18.8467 16.668C18.7852 16.8086 18.7544 16.9668 18.7544 17.1426C18.7544 17.2129 18.7896 17.3535 18.8599 17.5645C18.9302 17.7754 19.0137 18.0347 19.1104 18.3423C19.2158 18.6411 19.3257 18.9707 19.4399 19.3311C19.563 19.6914 19.6729 20.0518 19.7695 20.4121C19.875 20.7725 19.9629 21.1196 20.0332 21.4536C20.1035 21.7876 20.1387 22.0776 20.1387 22.3237C20.1387 22.5698 20.0596 22.8159 19.9014 23.062C19.7432 23.2993 19.5454 23.5278 19.3081 23.7476C19.0708 23.9673 18.8071 24.1738 18.5171 24.3672C18.2358 24.5518 17.9634 24.7144 17.6997 24.855C17.4448 24.9956 17.2207 25.1055 17.0273 25.1846C16.8428 25.2637 16.7241 25.3032 16.6714 25.3032C16.5923 25.3032 16.4868 25.29 16.355 25.2637C16.2231 25.2461 16.1133 25.2109 16.0254 25.1582C15.9287 25.1055 15.8276 25.0132 15.7222 24.8813C15.6167 24.7495 15.5156 24.5957 15.4189 24.4199C15.3135 24.2441 15.2212 24.0552 15.1421 23.853C15.0542 23.6509 14.9883 23.4575 14.9443 23.2729L16.5659 21.8096C16.6362 22.2314 16.7285 22.605 16.8428 22.9302C16.8955 23.0708 16.9526 23.2114 17.0142 23.3521C17.0757 23.4839 17.146 23.6025 17.2251 23.708C17.3042 23.8135 17.3921 23.897 17.4888 23.9585C17.5854 24.02 17.6909 24.0508 17.8052 24.0508C17.981 24.0508 18.1128 23.9761 18.2007 23.8267C18.2974 23.6685 18.3457 23.4751 18.3457 23.2466C18.3457 23.1763 18.3105 23.0181 18.2402 22.772C18.1787 22.5171 18.0952 22.2227 17.9897 21.8887C17.8843 21.5547 17.7744 21.1987 17.6602 20.8208C17.5459 20.4341 17.436 20.0781 17.3306 19.7529C17.2251 19.4189 17.1372 19.1333 17.0669 18.896C17.0054 18.6587 16.9746 18.5137 16.9746 18.4609C16.9746 18.3115 17.001 18.1226 17.0537 17.894C17.1152 17.6655 17.2075 17.4678 17.3306 17.3008C17.3745 17.2393 17.4756 17.1294 17.6338 16.9712C17.792 16.813 17.9766 16.6372 18.1875 16.4438C18.4072 16.2417 18.6401 16.0352 18.8862 15.8242C19.1323 15.6133 19.374 15.4199 19.6113 15.2441C19.8574 15.0684 20.0771 14.9233 20.2705 14.8091C20.4727 14.6948 20.6353 14.6377 20.7583 14.6377ZM22.7886 25.1846C22.5952 25.1846 22.4019 25.123 22.2085 25C22.0151 24.8682 21.8394 24.7056 21.6812 24.5122C21.5229 24.3101 21.3955 24.0903 21.2988 23.853C21.1934 23.6157 21.1406 23.3872 21.1406 23.1675C21.1406 22.9038 21.1758 22.605 21.2461 22.271C21.3076 21.937 21.3911 21.5898 21.4966 21.2295C21.5933 20.8691 21.7031 20.5132 21.8262 20.1616C21.9492 19.8101 22.0679 19.4893 22.1821 19.1992C22.2876 18.9004 22.3843 18.6455 22.4722 18.4346C22.5513 18.2236 22.6084 18.083 22.6436 18.0127C22.8193 17.5908 23.0918 17.1821 23.4609 16.7866C23.8389 16.3911 24.2476 16.0396 24.687 15.7319C25.1353 15.4243 25.5835 15.1782 26.0317 14.9937C26.4888 14.8091 26.8887 14.7168 27.2314 14.7168C27.5127 14.7168 27.7412 14.8706 27.917 15.1782C28.0928 15.4858 28.1807 15.8726 28.1807 16.3384C28.1807 16.5757 28.1235 16.8086 28.0093 17.0371C27.9038 17.2656 27.7632 17.481 27.5874 17.6831C27.4204 17.8853 27.2358 18.0742 27.0337 18.25C26.8403 18.4258 26.6558 18.5796 26.48 18.7114L23.7246 20.8208C23.5664 21.4185 23.4346 21.9502 23.3291 22.416C23.2324 22.873 23.1841 23.1851 23.1841 23.3521C23.1841 23.6069 23.2192 23.8003 23.2896 23.9321C23.3599 24.064 23.5049 24.1299 23.7246 24.1299C24.1904 24.1299 24.6738 23.9014 25.1748 23.4443C25.6758 22.9785 26.1636 22.2358 26.6382 21.2163L27.0205 21.4668C26.7832 22.0205 26.5063 22.5259 26.1899 22.9829C25.8823 23.4399 25.5483 23.8311 25.188 24.1562C24.8276 24.4814 24.4409 24.7363 24.0278 24.9209C23.6235 25.0967 23.2104 25.1846 22.7886 25.1846ZM26.269 15.4683C26.0933 15.4683 25.9043 15.6045 25.7021 15.877C25.5 16.1494 25.2979 16.5054 25.0957 16.9448C24.8936 17.3755 24.6958 17.8677 24.5024 18.4214C24.3091 18.9663 24.1333 19.5112 23.9751 20.0562L26.2163 18.2764C26.3218 17.8984 26.4185 17.5293 26.5063 17.1689C26.5942 16.7998 26.6382 16.5229 26.6382 16.3384C26.6382 16.2417 26.6294 16.145 26.6118 16.0483C26.603 15.9429 26.5854 15.8462 26.5591 15.7583C26.5327 15.6704 26.4932 15.6001 26.4404 15.5474C26.3965 15.4946 26.3394 15.4683 26.269 15.4683ZM28.9717 25C28.875 25.0176 28.7695 25.0308 28.6553 25.0396C28.4531 25.0659 28.1895 25.0791 27.8643 25.0791C27.7148 25.0791 27.5566 25.0703 27.3896 25.0527C27.2227 25.0439 27.0601 25.0264 26.9019 25L26.8096 24.8682C26.8535 24.7803 26.9326 24.6001 27.0469 24.3276C27.1523 24.0552 27.2798 23.7256 27.4292 23.3389C27.5698 22.9521 27.728 22.5215 27.9038 22.0469C28.0708 21.5723 28.2378 21.0889 28.4048 20.5967C28.5718 20.1045 28.7344 19.6211 28.8926 19.1465C29.0508 18.6719 29.187 18.2368 29.3013 17.8413C29.4243 17.4458 29.521 17.1118 29.5913 16.8394C29.6704 16.5581 29.71 16.3691 29.71 16.2725C29.71 16.1758 29.6968 16.1011 29.6704 16.0483C29.6528 15.9956 29.6353 15.9473 29.6177 15.9033C29.5913 15.8682 29.5649 15.833 29.5386 15.7979V15.6001C29.7407 15.4771 29.978 15.3672 30.2505 15.2705C30.5229 15.1738 30.7866 15.0947 31.0415 15.0332C31.3315 14.9629 31.6348 14.9014 31.9512 14.8486L32.0039 14.9277C32.0039 15.0332 31.9819 15.2046 31.938 15.4419C31.894 15.6792 31.8413 15.9341 31.7798 16.2065C31.7183 16.479 31.6523 16.7471 31.582 17.0107C31.5205 17.2656 31.4722 17.4722 31.437 17.6304C31.7095 17.2876 31.9863 16.9448 32.2676 16.6021C32.5488 16.2505 32.8169 15.9385 33.0718 15.666C33.3354 15.3936 33.5771 15.1738 33.7969 15.0068C34.0166 14.8311 34.2012 14.7432 34.3506 14.7432C34.4121 14.7432 34.5176 14.7739 34.667 14.8354C34.8252 14.8882 34.9878 14.9761 35.1548 15.0991C35.3218 15.2134 35.4668 15.3628 35.5898 15.5474C35.7217 15.7231 35.792 15.9385 35.8008 16.1934C35.8008 16.2812 35.7393 16.4834 35.6162 16.7998C35.4932 17.1162 35.3394 17.4941 35.1548 17.9336C34.979 18.373 34.7856 18.8521 34.5747 19.3706C34.3638 19.8892 34.166 20.3989 33.9814 20.8999C33.8057 21.4009 33.6562 21.8667 33.5332 22.2974C33.4102 22.728 33.3486 23.0796 33.3486 23.3521C33.3486 23.4575 33.3574 23.5366 33.375 23.5894C33.4014 23.6333 33.4541 23.6553 33.5332 23.6553C33.6299 23.6465 33.7749 23.5981 33.9683 23.5103C34.1616 23.4136 34.3857 23.2729 34.6406 23.0884C34.8955 22.9038 35.168 22.6797 35.458 22.416C35.7568 22.1436 36.0513 21.8271 36.3413 21.4668L36.6445 21.7305C36.2754 22.1963 35.8579 22.6401 35.3921 23.062C34.9351 23.4751 34.4824 23.8398 34.0342 24.1562C33.5859 24.4727 33.1641 24.7231 32.7686 24.9077C32.373 25.0923 32.0522 25.1846 31.8062 25.1846C31.7622 25.1846 31.7051 25.167 31.6348 25.1318C31.5645 25.0967 31.4941 25.0396 31.4238 24.9604C31.3535 24.8813 31.292 24.7715 31.2393 24.6309C31.1865 24.4902 31.1602 24.3145 31.1602 24.1035C31.1602 23.998 31.1733 23.8662 31.1997 23.708C31.2261 23.541 31.2568 23.374 31.292 23.207C31.3271 23.0312 31.3623 22.873 31.3975 22.7324C31.4414 22.583 31.4722 22.4731 31.4897 22.4028C31.5688 22.0952 31.6787 21.7524 31.8193 21.3745C31.9688 20.9878 32.127 20.5879 32.2939 20.1748C32.4609 19.7617 32.6323 19.353 32.8081 18.9487C32.9839 18.5356 33.1421 18.1533 33.2827 17.8018C33.4233 17.4414 33.5376 17.1294 33.6255 16.8657C33.7134 16.5933 33.7573 16.3867 33.7573 16.2461C33.7573 16.123 33.7222 16.0615 33.6519 16.0615C33.564 16.0615 33.4102 16.1582 33.1904 16.3516C32.9795 16.5449 32.7422 16.7866 32.4785 17.0767C32.2236 17.3579 31.9644 17.6567 31.7007 17.9731C31.437 18.2808 31.2129 18.5532 31.0283 18.7905C30.8438 19.3267 30.6504 19.8804 30.4482 20.4517C30.2461 21.0142 30.0527 21.5723 29.8682 22.126C29.6836 22.6709 29.5122 23.1895 29.354 23.6816C29.2046 24.1738 29.0771 24.6133 28.9717 25ZM37.0137 25.1846C36.9609 25.1846 36.873 25.1538 36.75 25.0923C36.6182 25.0308 36.4863 24.9385 36.3545 24.8154C36.2227 24.6924 36.104 24.543 35.9985 24.3672C35.8931 24.1914 35.8359 23.9893 35.8271 23.7607C35.8184 23.6729 35.8623 23.4575 35.959 23.1147C36.0557 22.772 36.1787 22.3589 36.3281 21.8755C36.4775 21.3833 36.6401 20.856 36.8159 20.2935C36.9829 19.7222 37.1411 19.1685 37.2905 18.6323C37.4399 18.0874 37.563 17.5864 37.6597 17.1294C37.7651 16.6724 37.8179 16.3164 37.8179 16.0615C37.8179 15.9912 37.8091 15.9297 37.7915 15.877C37.7739 15.8242 37.7563 15.7803 37.7388 15.7451C37.7124 15.71 37.686 15.6792 37.6597 15.6528V15.4683C37.8618 15.3452 38.0947 15.2441 38.3584 15.165C38.6309 15.0771 38.8945 15.0112 39.1494 14.9673C39.4395 14.9146 39.7427 14.875 40.0591 14.8486L40.125 14.9277C40.0635 15.3936 39.9624 15.9165 39.8218 16.4966C39.6899 17.0767 39.5405 17.6743 39.3735 18.2896C39.2065 18.896 39.0352 19.498 38.8594 20.0957C38.6836 20.6934 38.521 21.2515 38.3716 21.77C38.231 22.2798 38.1123 22.728 38.0156 23.1147C37.9277 23.4927 37.8838 23.7695 37.8838 23.9453C37.8838 24.0684 37.9189 24.1299 37.9893 24.1299C38.1123 24.1299 38.2925 24.0112 38.5298 23.7739C38.7671 23.5366 39.0352 23.2686 39.334 22.9697C39.5625 22.75 39.7778 22.4731 39.98 22.1392C40.1821 21.8052 40.3667 21.4448 40.5337 21.0581C40.7095 20.6626 40.8633 20.2539 40.9951 19.832C41.1357 19.4102 41.2544 19.0015 41.3511 18.606C41.4478 18.2017 41.5225 17.8237 41.5752 17.4722C41.6279 17.1206 41.6543 16.8218 41.6543 16.5757C41.6543 16.3911 41.6235 16.2725 41.562 16.2197C41.5005 16.1582 41.4258 16.1406 41.3379 16.167C41.25 16.1846 41.1577 16.2285 41.061 16.2988C40.9644 16.3691 40.8853 16.4351 40.8237 16.4966L40.5996 16.2461C40.7227 16.1055 40.8633 15.9473 41.0215 15.7715C41.1797 15.5957 41.3423 15.4331 41.5093 15.2837C41.6763 15.1343 41.8389 15.0068 41.9971 14.9014C42.1553 14.7959 42.2959 14.7432 42.4189 14.7432C42.5596 14.7432 42.7046 14.7915 42.854 14.8882C43.0122 14.9761 43.1572 15.0903 43.2891 15.231C43.4209 15.3716 43.5264 15.521 43.6055 15.6792C43.6934 15.8286 43.7373 15.9648 43.7373 16.0879C43.7373 16.7559 43.6406 17.4106 43.4473 18.0522C43.2539 18.6851 42.9858 19.3003 42.6431 19.8979C42.3091 20.4956 41.918 21.0713 41.4697 21.625C41.0303 22.1699 40.5601 22.6841 40.0591 23.1675C39.8306 23.3872 39.5845 23.6157 39.3208 23.853C39.0659 24.0903 38.8022 24.3101 38.5298 24.5122C38.2661 24.7056 38.0024 24.8682 37.7388 25C37.4751 25.123 37.2334 25.1846 37.0137 25.1846ZM44.5283 18.1445C44.7393 17.6348 44.9985 17.1777 45.3062 16.7734C45.6138 16.3604 45.9521 16.0132 46.3213 15.7319C46.6904 15.4419 47.0815 15.2222 47.4946 15.0728C47.9077 14.9233 48.3252 14.8486 48.7471 14.8486C48.9316 14.8486 49.1338 14.9014 49.3535 15.0068C49.582 15.1035 49.793 15.2397 49.9863 15.4155C50.1797 15.5913 50.3379 15.8066 50.4609 16.0615C50.5928 16.3076 50.6587 16.5801 50.6587 16.8789C50.6587 17.1338 50.6279 17.4282 50.5664 17.7622C50.5049 18.0874 50.4258 18.4258 50.3291 18.7773C50.2324 19.1201 50.127 19.4629 50.0127 19.8057C49.8984 20.1484 49.7886 20.4648 49.6831 20.7549C49.5776 21.0361 49.481 21.2778 49.3931 21.48C49.314 21.6821 49.2568 21.8184 49.2217 21.8887C49.0107 22.4072 48.7515 22.8687 48.4438 23.2729C48.1362 23.6772 47.7979 24.0244 47.4287 24.3145C47.0596 24.5957 46.6685 24.811 46.2554 24.9604C45.8511 25.1099 45.438 25.1846 45.0161 25.1846C44.8315 25.1846 44.6294 25.1362 44.4097 25.0396C44.1812 24.9429 43.9702 24.8066 43.7769 24.6309C43.5835 24.4463 43.4253 24.231 43.3022 23.9849C43.1704 23.7388 43.1045 23.4663 43.1045 23.1675C43.1045 22.9038 43.1353 22.6094 43.1968 22.2842C43.2583 21.9502 43.3374 21.6118 43.4341 21.269C43.5308 20.9175 43.6362 20.5703 43.7505 20.2275C43.8647 19.8848 43.9746 19.5728 44.0801 19.2915C44.1855 19.0103 44.2778 18.7686 44.3569 18.5664C44.436 18.3555 44.4932 18.2148 44.5283 18.1445ZM48.1802 15.5737C47.978 15.5737 47.7583 15.7539 47.521 16.1143C47.2925 16.4658 47.0596 16.9185 46.8223 17.4722C46.5938 18.0259 46.3696 18.6323 46.1499 19.2915C45.939 19.9419 45.75 20.5703 45.583 21.1768C45.4248 21.7832 45.293 22.3193 45.1875 22.7852C45.0908 23.2422 45.0425 23.5498 45.0425 23.708C45.0425 23.9629 45.0908 24.1475 45.1875 24.2617C45.2842 24.376 45.416 24.4331 45.583 24.4331C45.7324 24.4331 45.8906 24.332 46.0576 24.1299C46.2246 23.9189 46.396 23.6421 46.5718 23.2993C46.7476 22.9565 46.9189 22.561 47.0859 22.1128C47.2617 21.6646 47.4287 21.2031 47.5869 20.7285C47.7451 20.2451 47.8901 19.7661 48.022 19.2915C48.1626 18.8169 48.2812 18.3774 48.3779 17.9731C48.4834 17.5688 48.5625 17.2217 48.6152 16.9316C48.6768 16.6328 48.7075 16.4263 48.7075 16.312C48.7075 16.0571 48.6592 15.8726 48.5625 15.7583C48.4658 15.6353 48.3384 15.5737 48.1802 15.5737ZM56.7759 10.7222C56.5562 11.3726 56.2969 12.1152 55.998 12.9502C55.6992 13.7764 55.3916 14.6289 55.0752 15.5078C54.7676 16.3779 54.46 17.2437 54.1523 18.105C53.8447 18.9663 53.5723 19.7529 53.335 20.4648C53.0977 21.168 52.9043 21.77 52.7549 22.271C52.6055 22.772 52.5308 23.0972 52.5308 23.2466C52.5308 23.4048 52.5967 23.4839 52.7285 23.4839C52.8164 23.4751 52.957 23.4268 53.1504 23.3389C53.3438 23.2422 53.5679 23.1016 53.8228 22.917C54.0776 22.7324 54.3501 22.5083 54.6401 22.2446C54.939 21.9722 55.2378 21.6558 55.5366 21.2954L55.8267 21.5723C55.4399 22.0381 55.0225 22.4907 54.5742 22.9302C54.1348 23.3608 53.6997 23.7432 53.269 24.0771C52.8472 24.4111 52.4517 24.6792 52.0825 24.8813C51.7134 25.0835 51.4058 25.1846 51.1597 25.1846C51.0366 25.1846 50.9355 25.1274 50.8564 25.0132C50.7773 24.9077 50.7158 24.7759 50.6719 24.6177C50.6191 24.4507 50.584 24.2749 50.5664 24.0903C50.5488 23.897 50.54 23.7212 50.54 23.563C50.54 23.5278 50.5444 23.4751 50.5532 23.4048C50.5532 23.3257 50.5576 23.2422 50.5664 23.1543C50.5752 23.0576 50.5884 22.9653 50.606 22.8774C50.6147 22.7808 50.6279 22.6973 50.6455 22.627C50.8125 22.0381 51.0103 21.3965 51.2388 20.7021C51.4585 20.0078 51.6958 19.2915 51.9507 18.5532C52.2056 17.8149 52.4692 17.0679 52.7417 16.312C53.0142 15.5562 53.2778 14.8267 53.5327 14.1235C53.7964 13.4116 54.0425 12.7437 54.271 12.1196C54.4995 11.4868 54.7017 10.9287 54.8774 10.4453C55.0532 9.95312 55.1895 9.55322 55.2861 9.24561C55.3916 8.9292 55.4443 8.73584 55.4443 8.66553C55.4443 8.47217 55.3916 8.34033 55.2861 8.27002C55.1895 8.19092 55.0664 8.15576 54.917 8.16455C54.7676 8.17334 54.605 8.2085 54.4292 8.27002C54.2534 8.32275 54.0908 8.38428 53.9414 8.45459L53.77 8.09863C54.6753 7.65918 55.4004 7.35156 55.9453 7.17578C56.499 7 56.8813 6.91211 57.0923 6.91211C57.1538 6.91211 57.2241 6.93848 57.3032 6.99121C57.3911 7.03516 57.4702 7.10107 57.5405 7.18896C57.6108 7.27686 57.6724 7.37793 57.7251 7.49219C57.7778 7.59766 57.8042 7.70752 57.8042 7.82178C57.8042 7.89209 57.7031 8.18652 57.501 8.70508C57.2988 9.21484 57.0571 9.88721 56.7759 10.7222ZM56.1826 25.1846C56.1299 25.1846 56.042 25.1538 55.9189 25.0923C55.7871 25.0308 55.6553 24.9385 55.5234 24.8154C55.3916 24.6924 55.2729 24.543 55.1675 24.3672C55.062 24.1914 55.0049 23.9893 54.9961 23.7607C54.9873 23.6729 55.0312 23.4575 55.1279 23.1147C55.2246 22.772 55.3477 22.3589 55.4971 21.8755C55.6465 21.3833 55.8091 20.856 55.9849 20.2935C56.1519 19.7222 56.3101 19.1685 56.4595 18.6323C56.6089 18.0874 56.7319 17.5864 56.8286 17.1294C56.9341 16.6724 56.9868 16.3164 56.9868 16.0615C56.9868 15.9912 56.978 15.9297 56.9604 15.877C56.9429 15.8242 56.9253 15.7803 56.9077 15.7451C56.8813 15.71 56.855 15.6792 56.8286 15.6528V15.4683C57.0308 15.3452 57.2637 15.2441 57.5273 15.165C57.7998 15.0771 58.0635 15.0112 58.3184 14.9673C58.6084 14.9146 58.9116 14.875 59.228 14.8486L59.2939 14.9277C59.2324 15.3936 59.1313 15.9165 58.9907 16.4966C58.8589 17.0767 58.7095 17.6743 58.5425 18.2896C58.3755 18.896 58.2041 19.498 58.0283 20.0957C57.8525 20.6934 57.6899 21.2515 57.5405 21.77C57.3999 22.2798 57.2812 22.728 57.1846 23.1147C57.0967 23.4927 57.0527 23.7695 57.0527 23.9453C57.0527 24.0684 57.0879 24.1299 57.1582 24.1299C57.2812 24.1299 57.4614 24.0112 57.6987 23.7739C57.936 23.5366 58.2041 23.2686 58.5029 22.9697C58.7314 22.75 58.9468 22.4731 59.1489 22.1392C59.3511 21.8052 59.5356 21.4448 59.7026 21.0581C59.8784 20.6626 60.0322 20.2539 60.1641 19.832C60.3047 19.4102 60.4233 19.0015 60.52 18.606C60.6167 18.2017 60.6914 17.8237 60.7441 17.4722C60.7969 17.1206 60.8232 16.8218 60.8232 16.5757C60.8232 16.3911 60.7925 16.2725 60.731 16.2197C60.6694 16.1582 60.5947 16.1406 60.5068 16.167C60.4189 16.1846 60.3267 16.2285 60.23 16.2988C60.1333 16.3691 60.0542 16.4351 59.9927 16.4966L59.7686 16.2461C59.8916 16.1055 60.0322 15.9473 60.1904 15.7715C60.3486 15.5957 60.5112 15.4331 60.6782 15.2837C60.8452 15.1343 61.0078 15.0068 61.166 14.9014C61.3242 14.7959 61.4648 14.7432 61.5879 14.7432C61.7285 14.7432 61.8735 14.7915 62.0229 14.8882C62.1812 14.9761 62.3262 15.0903 62.458 15.231C62.5898 15.3716 62.6953 15.521 62.7744 15.6792C62.8623 15.8286 62.9062 15.9648 62.9062 16.0879C62.9062 16.7559 62.8096 17.4106 62.6162 18.0522C62.4229 18.6851 62.1548 19.3003 61.812 19.8979C61.478 20.4956 61.0869 21.0713 60.6387 21.625C60.1992 22.1699 59.729 22.6841 59.228 23.1675C58.9995 23.3872 58.7534 23.6157 58.4897 23.853C58.2349 24.0903 57.9712 24.3101 57.6987 24.5122C57.4351 24.7056 57.1714 24.8682 56.9077 25C56.644 25.123 56.4023 25.1846 56.1826 25.1846ZM63.9741 25.1846C63.7808 25.1846 63.5874 25.123 63.394 25C63.2007 24.8682 63.0249 24.7056 62.8667 24.5122C62.7085 24.3101 62.5811 24.0903 62.4844 23.853C62.3789 23.6157 62.3262 23.3872 62.3262 23.1675C62.3262 22.9038 62.3613 22.605 62.4316 22.271C62.4932 21.937 62.5767 21.5898 62.6821 21.2295C62.7788 20.8691 62.8887 20.5132 63.0117 20.1616C63.1348 19.8101 63.2534 19.4893 63.3677 19.1992C63.4731 18.9004 63.5698 18.6455 63.6577 18.4346C63.7368 18.2236 63.7939 18.083 63.8291 18.0127C64.0049 17.5908 64.2773 17.1821 64.6465 16.7866C65.0244 16.3911 65.4331 16.0396 65.8726 15.7319C66.3208 15.4243 66.769 15.1782 67.2173 14.9937C67.6743 14.8091 68.0742 14.7168 68.417 14.7168C68.6982 14.7168 68.9268 14.8706 69.1025 15.1782C69.2783 15.4858 69.3662 15.8726 69.3662 16.3384C69.3662 16.5757 69.3091 16.8086 69.1948 17.0371C69.0894 17.2656 68.9487 17.481 68.7729 17.6831C68.606 17.8853 68.4214 18.0742 68.2192 18.25C68.0259 18.4258 67.8413 18.5796 67.6655 18.7114L64.9102 20.8208C64.752 21.4185 64.6201 21.9502 64.5146 22.416C64.418 22.873 64.3696 23.1851 64.3696 23.3521C64.3696 23.6069 64.4048 23.8003 64.4751 23.9321C64.5454 24.064 64.6904 24.1299 64.9102 24.1299C65.376 24.1299 65.8594 23.9014 66.3604 23.4443C66.8613 22.9785 67.3491 22.2358 67.8237 21.2163L68.2061 21.4668C67.9688 22.0205 67.6919 22.5259 67.3755 22.9829C67.0679 23.4399 66.7339 23.8311 66.3735 24.1562C66.0132 24.4814 65.6265 24.7363 65.2134 24.9209C64.8091 25.0967 64.396 25.1846 63.9741 25.1846ZM67.4546 15.4683C67.2788 15.4683 67.0898 15.6045 66.8877 15.877C66.6855 16.1494 66.4834 16.5054 66.2812 16.9448C66.0791 17.3755 65.8813 17.8677 65.688 18.4214C65.4946 18.9663 65.3188 19.5112 65.1606 20.0562L67.4019 18.2764C67.5073 17.8984 67.604 17.5293 67.6919 17.1689C67.7798 16.7998 67.8237 16.5229 67.8237 16.3384C67.8237 16.2417 67.8149 16.145 67.7974 16.0483C67.7886 15.9429 67.771 15.8462 67.7446 15.7583C67.7183 15.6704 67.6787 15.6001 67.626 15.5474C67.582 15.4946 67.5249 15.4683 67.4546 15.4683ZM76.9336 8.66553C76.9336 8.47217 76.8809 8.34033 76.7754 8.27002C76.6787 8.19092 76.5557 8.15576 76.4062 8.16455C76.2568 8.17334 76.0942 8.2085 75.9185 8.27002C75.7427 8.32275 75.5801 8.38428 75.4307 8.45459L75.2593 8.09863C76.1646 7.65918 76.8984 7.35156 77.4609 7.17578C78.0322 7 78.4233 6.91211 78.6343 6.91211C78.6958 6.91211 78.7661 6.93848 78.8452 6.99121C78.9331 7.03516 79.0122 7.10107 79.0825 7.18896C79.1528 7.27686 79.2144 7.37793 79.2671 7.49219C79.3198 7.59766 79.3462 7.70752 79.3462 7.82178C79.3462 7.89209 79.2451 8.18652 79.043 8.70508C78.8408 9.21484 78.5991 9.88721 78.3179 10.7222C78.1509 11.2144 77.9663 11.7549 77.7642 12.3437C77.562 12.9326 77.3467 13.5479 77.1182 14.1895C76.8984 14.8223 76.6743 15.4683 76.4458 16.1274C76.2261 16.7866 76.0107 17.4282 75.7998 18.0522C75.5889 18.6763 75.3867 19.2739 75.1934 19.8452C75.0088 20.4077 74.8462 20.9131 74.7056 21.3613C74.5737 21.8096 74.4683 22.1919 74.3892 22.5083C74.3101 22.8159 74.2705 23.0269 74.2705 23.1411C74.2705 23.2993 74.332 23.3784 74.4551 23.3784C74.5518 23.3696 74.6968 23.3213 74.8901 23.2334C75.0835 23.1367 75.3032 22.9961 75.5493 22.8115C75.8042 22.627 76.0767 22.4028 76.3667 22.1392C76.6655 21.8667 76.9644 21.5503 77.2632 21.1899L77.5532 21.4668C77.1665 21.9326 76.7534 22.3853 76.314 22.8247C75.8745 23.2554 75.4395 23.6377 75.0088 23.9717C74.5869 24.3057 74.187 24.5737 73.8091 24.7759C73.4399 24.978 73.1323 25.0791 72.8862 25.0791C72.7632 25.0791 72.6621 25.0264 72.583 24.9209C72.5039 24.8066 72.438 24.666 72.3853 24.499C72.3413 24.332 72.3105 24.1562 72.293 23.9717C72.2754 23.7871 72.2666 23.6157 72.2666 23.4575C72.2666 23.3872 72.2754 23.3081 72.293 23.2202C72.3193 23.1235 72.3457 23.0049 72.3721 22.8643C72.082 23.1719 71.7656 23.4663 71.4229 23.7476C71.0889 24.02 70.7637 24.2617 70.4473 24.4727C70.1396 24.6748 69.8628 24.8374 69.6167 24.9604C69.3618 25.0747 69.1816 25.1318 69.0762 25.1318C68.9795 25.1318 68.9048 25.0879 68.8521 25C68.7905 24.9209 68.7466 24.8242 68.7202 24.71C68.6851 24.5869 68.6631 24.4639 68.6543 24.3408C68.6367 24.209 68.6279 24.0947 68.6279 23.998C68.6279 23.6904 68.6631 23.3389 68.7334 22.9434C68.8037 22.5479 68.8916 22.1392 68.9971 21.7173C69.0938 21.2954 69.208 20.8823 69.3398 20.478C69.4629 20.0649 69.5815 19.6914 69.6958 19.3574C69.8101 19.0146 69.9111 18.729 69.999 18.5005C70.0869 18.2632 70.1484 18.1094 70.1836 18.0391C70.3418 17.6963 70.5835 17.3535 70.9087 17.0107C71.2339 16.668 71.6162 16.334 72.0557 16.0088C72.4951 15.6836 72.9741 15.376 73.4927 15.0859C74.02 14.7871 74.5562 14.519 75.1011 14.2817C75.3472 13.561 75.5801 12.8799 75.7998 12.2383C76.0283 11.5879 76.2261 11.0122 76.3931 10.5112C76.5601 10.0103 76.6919 9.59717 76.7886 9.27197C76.8853 8.94678 76.9336 8.74463 76.9336 8.66553ZM72.5171 22.0073C72.6753 21.5151 72.8467 20.9878 73.0312 20.4253C73.2158 19.854 73.4048 19.2695 73.5981 18.6719C73.8003 18.0742 74.0068 17.4678 74.2178 16.8525C74.4287 16.2373 74.6353 15.6309 74.8374 15.0332C74.5913 15.1035 74.3452 15.2046 74.0991 15.3364C73.8618 15.4595 73.6729 15.5737 73.5322 15.6792C73.3037 15.855 73.0708 16.1538 72.8335 16.5757C72.605 16.9888 72.3853 17.459 72.1743 17.9863C71.9634 18.5049 71.7656 19.0454 71.5811 19.6079C71.4053 20.1704 71.2515 20.6978 71.1196 21.1899C70.9878 21.6733 70.8823 22.0864 70.8032 22.4292C70.7329 22.7632 70.6978 22.9609 70.6978 23.0225C70.6978 23.0928 70.7021 23.1587 70.7109 23.2202C70.7285 23.2729 70.7725 23.2993 70.8428 23.2993C70.9131 23.2993 71.0142 23.2642 71.146 23.1938C71.2778 23.1235 71.4185 23.0312 71.5679 22.917C71.7261 22.7939 71.8887 22.6533 72.0557 22.4951C72.2227 22.3369 72.3765 22.1743 72.5171 22.0073ZM77.7246 18.1445C77.9355 17.6348 78.1948 17.1777 78.5024 16.7734C78.8101 16.3604 79.1484 16.0132 79.5176 15.7319C79.8867 15.4419 80.2778 15.2222 80.6909 15.0728C81.104 14.9233 81.5215 14.8486 81.9434 14.8486C82.1279 14.8486 82.3301 14.9014 82.5498 15.0068C82.7783 15.1035 82.9893 15.2397 83.1826 15.4155C83.376 15.5913 83.5342 15.8066 83.6572 16.0615C83.7891 16.3076 83.855 16.5801 83.855 16.8789C83.855 17.1338 83.8242 17.4282 83.7627 17.7622C83.7012 18.0874 83.6221 18.4258 83.5254 18.7773C83.4287 19.1201 83.3232 19.4629 83.209 19.8057C83.0947 20.1484 82.9849 20.4648 82.8794 20.7549C82.7739 21.0361 82.6772 21.2778 82.5894 21.48C82.5103 21.6821 82.4531 21.8184 82.418 21.8887C82.207 22.4072 81.9478 22.8687 81.6401 23.2729C81.3325 23.6772 80.9941 24.0244 80.625 24.3145C80.2559 24.5957 79.8647 24.811 79.4517 24.9604C79.0474 25.1099 78.6343 25.1846 78.2124 25.1846C78.0278 25.1846 77.8257 25.1362 77.606 25.0396C77.3774 24.9429 77.1665 24.8066 76.9731 24.6309C76.7798 24.4463 76.6216 24.231 76.4985 23.9849C76.3667 23.7388 76.3008 23.4663 76.3008 23.1675C76.3008 22.9038 76.3315 22.6094 76.3931 22.2842C76.4546 21.9502 76.5337 21.6118 76.6304 21.269C76.7271 20.9175 76.8325 20.5703 76.9468 20.2275C77.061 19.8848 77.1709 19.5728 77.2764 19.2915C77.3818 19.0103 77.4741 18.7686 77.5532 18.5664C77.6323 18.3555 77.6895 18.2148 77.7246 18.1445ZM81.3765 15.5737C81.1743 15.5737 80.9546 15.7539 80.7173 16.1143C80.4888 16.4658 80.2559 16.9185 80.0186 17.4722C79.79 18.0259 79.5659 18.6323 79.3462 19.2915C79.1353 19.9419 78.9463 20.5703 78.7793 21.1768C78.6211 21.7832 78.4893 22.3193 78.3838 22.7852C78.2871 23.2422 78.2388 23.5498 78.2388 23.708C78.2388 23.9629 78.2871 24.1475 78.3838 24.2617C78.4805 24.376 78.6123 24.4331 78.7793 24.4331C78.9287 24.4331 79.0869 24.332 79.2539 24.1299C79.4209 23.9189 79.5923 23.6421 79.7681 23.2993C79.9438 22.9565 80.1152 22.561 80.2822 22.1128C80.458 21.6646 80.625 21.2031 80.7832 20.7285C80.9414 20.2451 81.0864 19.7661 81.2183 19.2915C81.3589 18.8169 81.4775 18.3774 81.5742 17.9731C81.6797 17.5688 81.7588 17.2217 81.8115 16.9316C81.873 16.6328 81.9038 16.4263 81.9038 16.312C81.9038 16.0571 81.8555 15.8726 81.7588 15.7583C81.6621 15.6353 81.5347 15.5737 81.3765 15.5737ZM85.1074 25C85.0107 25.0176 84.9053 25.0308 84.791 25.0396C84.5889 25.0659 84.3252 25.0791 84 25.0791C83.8506 25.0791 83.6924 25.0703 83.5254 25.0527C83.3584 25.0439 83.1914 25.0264 83.0244 25L82.9453 24.8682C82.9893 24.7803 83.0684 24.6001 83.1826 24.3276C83.2881 24.0552 83.4155 23.7256 83.5649 23.3389C83.7056 22.9521 83.8594 22.5215 84.0264 22.0469C84.1934 21.5723 84.3647 21.0889 84.5405 20.5967C84.7075 20.1045 84.8701 19.6211 85.0283 19.1465C85.1777 18.6719 85.314 18.2368 85.437 17.8413C85.5601 17.4458 85.6567 17.1118 85.7271 16.8394C85.7974 16.5581 85.8325 16.3691 85.8325 16.2725C85.8325 16.1758 85.8237 16.1011 85.8062 16.0483C85.7886 15.9956 85.771 15.9473 85.7534 15.9033C85.7271 15.8682 85.7007 15.833 85.6743 15.7979V15.6001C85.8765 15.4771 86.1094 15.3672 86.373 15.2705C86.6455 15.1738 86.9092 15.0947 87.1641 15.0332C87.4541 14.9629 87.7573 14.9014 88.0737 14.8486L88.1396 14.9277C88.1396 15.0068 88.1177 15.1299 88.0737 15.2969C88.0386 15.4639 87.9902 15.6528 87.9287 15.8638C87.8672 16.0659 87.8013 16.2769 87.731 16.4966C87.6606 16.7163 87.5903 16.9229 87.52 17.1162C87.4585 17.3096 87.4014 17.4766 87.3486 17.6172C87.3047 17.7578 87.2783 17.8501 87.2695 17.894C87.0762 18.4126 86.8872 18.9575 86.7026 19.5288C86.5181 20.1001 86.3379 20.6714 86.1621 21.2427C86.3643 20.7417 86.5752 20.2363 86.7949 19.7266C87.0234 19.208 87.252 18.7114 87.4805 18.2368C87.709 17.7534 87.9419 17.3008 88.1792 16.8789C88.4253 16.4482 88.6626 16.0791 88.8911 15.7715C89.1196 15.4551 89.3438 15.2046 89.5635 15.02C89.792 14.8354 90.0073 14.7432 90.2095 14.7432C90.271 14.7432 90.3633 14.7695 90.4863 14.8223C90.6094 14.8662 90.7368 14.9321 90.8687 15.02C91.0005 15.1079 91.1279 15.2178 91.251 15.3496C91.3828 15.4727 91.4883 15.6133 91.5674 15.7715C91.6025 15.8242 91.5718 15.9736 91.4751 16.2197C91.3784 16.457 91.2202 16.7427 91.0005 17.0767C90.7808 17.4019 90.5039 17.749 90.1699 18.1182C89.8359 18.4785 89.4448 18.8125 88.9966 19.1201L88.667 18.9487C88.8076 18.6587 88.9175 18.4126 88.9966 18.2104C89.0845 17.9995 89.1504 17.8193 89.1943 17.6699C89.2383 17.5117 89.2646 17.3755 89.2734 17.2612C89.291 17.147 89.2998 17.0371 89.2998 16.9316C89.2998 16.7998 89.2603 16.7339 89.1812 16.7339C89.0581 16.7339 88.8999 16.8569 88.7065 17.103C88.522 17.3403 88.3154 17.6655 88.0869 18.0786C87.8672 18.4917 87.6299 18.9751 87.375 19.5288C87.1289 20.0737 86.874 20.6538 86.6104 21.269C86.3555 21.8755 86.0962 22.4995 85.8325 23.1411C85.5776 23.7827 85.3359 24.4023 85.1074 25ZM97.4077 14.9541C97.6626 14.1543 97.9043 13.3984 98.1328 12.6865C98.3701 11.9746 98.5767 11.3462 98.7524 10.8013C98.937 10.2563 99.0908 9.80811 99.2139 9.45654C99.3369 9.09619 99.4204 8.86768 99.4644 8.771C99.5347 8.59521 99.7148 8.40186 100.005 8.19092C100.295 7.97119 100.616 7.76904 100.967 7.58447C101.319 7.39111 101.662 7.23291 101.996 7.10986C102.338 6.97803 102.598 6.91211 102.773 6.91211C102.958 6.91211 103.116 6.97803 103.248 7.10986C103.389 7.23291 103.499 7.3999 103.578 7.61084C103.657 7.81299 103.701 8.0459 103.709 8.30957C103.727 8.56445 103.705 8.82812 103.644 9.10059C103.573 9.4082 103.433 9.66309 103.222 9.86523C103.02 10.0586 102.804 10.2124 102.576 10.3267C102.312 10.4585 102.022 10.5596 101.706 10.6299C101.89 10.2783 102.004 9.97949 102.048 9.7334C102.101 9.4873 102.127 9.25879 102.127 9.04785C102.127 8.95996 102.119 8.85449 102.101 8.73145C102.092 8.6084 102.075 8.48975 102.048 8.37549C102.022 8.26123 101.982 8.16455 101.93 8.08545C101.886 8.00635 101.829 7.9668 101.758 7.9668C101.679 7.9668 101.591 8.05029 101.495 8.21729C101.407 8.38428 101.314 8.59961 101.218 8.86328C101.13 9.12695 101.038 9.42139 100.941 9.74658C100.844 10.063 100.748 10.3794 100.651 10.6958L99.2666 14.9014L101.218 14.8486L100.967 15.4683L99.082 15.4946C98.4229 17.6128 97.7681 19.7134 97.1177 21.7964C96.4761 23.8794 95.8521 25.9536 95.2456 28.019C94.9731 28.3267 94.6172 28.5991 94.1777 28.8364C93.7295 29.0737 93.2417 29.3066 92.7144 29.5352L92.6221 29.4033C92.666 29.3242 92.7671 29.0605 92.9253 28.6123C93.0747 28.1729 93.2681 27.6016 93.5054 26.8984C93.7427 26.1953 94.0107 25.3911 94.3096 24.4858C94.6084 23.5806 94.9204 22.627 95.2456 21.625C95.5708 20.623 95.9004 19.5991 96.2344 18.5532C96.5771 17.5073 96.9067 16.4966 97.2231 15.521L95.8125 15.5474L96.0234 14.9805L97.4077 14.9541ZM100.269 25C100.172 25.0176 100.066 25.0308 99.9521 25.0396C99.75 25.0659 99.4863 25.0791 99.1611 25.0791C99.0117 25.0791 98.8535 25.0703 98.6865 25.0527C98.5195 25.0439 98.3525 25.0264 98.1855 25L98.1064 24.8682C98.1504 24.7803 98.2295 24.6001 98.3438 24.3276C98.4492 24.0552 98.5767 23.7256 98.7261 23.3389C98.8667 22.9521 99.0205 22.5215 99.1875 22.0469C99.3545 21.5723 99.5259 21.0889 99.7017 20.5967C99.8687 20.1045 100.031 19.6211 100.189 19.1465C100.339 18.6719 100.475 18.2368 100.598 17.8413C100.721 17.4458 100.818 17.1118 100.888 16.8394C100.958 16.5581 100.994 16.3691 100.994 16.2725C100.994 16.1758 100.985 16.1011 100.967 16.0483C100.95 15.9956 100.932 15.9473 100.915 15.9033C100.888 15.8682 100.862 15.833 100.835 15.7979V15.6001C101.038 15.4771 101.271 15.3672 101.534 15.2705C101.807 15.1738 102.07 15.0947 102.325 15.0332C102.615 14.9629 102.918 14.9014 103.235 14.8486L103.301 14.9277C103.301 15.0068 103.279 15.1299 103.235 15.2969C103.2 15.4639 103.151 15.6528 103.09 15.8638C103.028 16.0659 102.962 16.2769 102.892 16.4966C102.822 16.7163 102.751 16.9229 102.681 17.1162C102.62 17.3096 102.562 17.4766 102.51 17.6172C102.466 17.7578 102.439 17.8501 102.431 17.894C102.237 18.4126 102.048 18.9575 101.864 19.5288C101.679 20.1001 101.499 20.6714 101.323 21.2427C101.525 20.7417 101.736 20.2363 101.956 19.7266C102.185 19.208 102.413 18.7114 102.642 18.2368C102.87 17.7534 103.103 17.3008 103.34 16.8789C103.586 16.4482 103.824 16.0791 104.052 15.7715C104.281 15.4551 104.505 15.2046 104.725 15.02C104.953 14.8354 105.168 14.7432 105.371 14.7432C105.432 14.7432 105.524 14.7695 105.647 14.8223C105.771 14.8662 105.898 14.9321 106.03 15.02C106.162 15.1079 106.289 15.2178 106.412 15.3496C106.544 15.4727 106.649 15.6133 106.729 15.7715C106.764 15.8242 106.733 15.9736 106.636 16.2197C106.54 16.457 106.381 16.7427 106.162 17.0767C105.942 17.4019 105.665 17.749 105.331 18.1182C104.997 18.4785 104.606 18.8125 104.158 19.1201L103.828 18.9487C103.969 18.6587 104.079 18.4126 104.158 18.2104C104.246 17.9995 104.312 17.8193 104.355 17.6699C104.399 17.5117 104.426 17.3755 104.435 17.2612C104.452 17.147 104.461 17.0371 104.461 16.9316C104.461 16.7998 104.421 16.7339 104.342 16.7339C104.219 16.7339 104.061 16.8569 103.868 17.103C103.683 17.3403 103.477 17.6655 103.248 18.0786C103.028 18.4917 102.791 18.9751 102.536 19.5288C102.29 20.0737 102.035 20.6538 101.771 21.269C101.517 21.8755 101.257 22.4995 100.994 23.1411C100.739 23.7827 100.497 24.4023 100.269 25ZM106.518 18.1445C106.729 17.6348 106.988 17.1777 107.295 16.7734C107.603 16.3604 107.941 16.0132 108.311 15.7319C108.68 15.4419 109.071 15.2222 109.484 15.0728C109.897 14.9233 110.314 14.8486 110.736 14.8486C110.921 14.8486 111.123 14.9014 111.343 15.0068C111.571 15.1035 111.782 15.2397 111.976 15.4155C112.169 15.5913 112.327 15.8066 112.45 16.0615C112.582 16.3076 112.648 16.5801 112.648 16.8789C112.648 17.1338 112.617 17.4282 112.556 17.7622C112.494 18.0874 112.415 18.4258 112.318 18.7773C112.222 19.1201 112.116 19.4629 112.002 19.8057C111.888 20.1484 111.778 20.4648 111.672 20.7549C111.567 21.0361 111.47 21.2778 111.382 21.48C111.303 21.6821 111.246 21.8184 111.211 21.8887C111 22.4072 110.741 22.8687 110.433 23.2729C110.125 23.6772 109.787 24.0244 109.418 24.3145C109.049 24.5957 108.658 24.811 108.245 24.9604C107.84 25.1099 107.427 25.1846 107.005 25.1846C106.821 25.1846 106.619 25.1362 106.399 25.0396C106.17 24.9429 105.959 24.8066 105.766 24.6309C105.573 24.4463 105.415 24.231 105.292 23.9849C105.16 23.7388 105.094 23.4663 105.094 23.1675C105.094 22.9038 105.125 22.6094 105.186 22.2842C105.248 21.9502 105.327 21.6118 105.423 21.269C105.52 20.9175 105.625 20.5703 105.74 20.2275C105.854 19.8848 105.964 19.5728 106.069 19.2915C106.175 19.0103 106.267 18.7686 106.346 18.5664C106.425 18.3555 106.482 18.2148 106.518 18.1445ZM110.169 15.5737C109.967 15.5737 109.748 15.7539 109.51 16.1143C109.282 16.4658 109.049 16.9185 108.812 17.4722C108.583 18.0259 108.359 18.6323 108.139 19.2915C107.928 19.9419 107.739 20.5703 107.572 21.1768C107.414 21.7832 107.282 22.3193 107.177 22.7852C107.08 23.2422 107.032 23.5498 107.032 23.708C107.032 23.9629 107.08 24.1475 107.177 24.2617C107.273 24.376 107.405 24.4331 107.572 24.4331C107.722 24.4331 107.88 24.332 108.047 24.1299C108.214 23.9189 108.385 23.6421 108.561 23.2993C108.737 22.9565 108.908 22.561 109.075 22.1128C109.251 21.6646 109.418 21.2031 109.576 20.7285C109.734 20.2451 109.879 19.7661 110.011 19.2915C110.152 18.8169 110.271 18.3774 110.367 17.9731C110.473 17.5688 110.552 17.2217 110.604 16.9316C110.666 16.6328 110.697 16.4263 110.697 16.312C110.697 16.0571 110.648 15.8726 110.552 15.7583C110.455 15.6353 110.328 15.5737 110.169 15.5737ZM114.006 25C113.909 25.0176 113.804 25.0308 113.689 25.0396C113.487 25.0659 113.224 25.0791 112.898 25.0791C112.749 25.0791 112.591 25.0703 112.424 25.0527C112.257 25.0439 112.094 25.0264 111.936 25L111.844 24.8682C111.888 24.7803 111.967 24.6001 112.081 24.3276C112.187 24.0552 112.314 23.7256 112.463 23.3389C112.604 22.9521 112.762 22.5215 112.938 22.0469C113.105 21.5723 113.272 21.0889 113.439 20.5967C113.606 20.1045 113.769 19.6211 113.927 19.1465C114.085 18.6719 114.221 18.2368 114.335 17.8413C114.458 17.4458 114.555 17.1118 114.625 16.8394C114.705 16.5581 114.744 16.3691 114.744 16.2725C114.744 16.1758 114.731 16.1011 114.705 16.0483C114.687 15.9956 114.669 15.9473 114.652 15.9033C114.625 15.8682 114.599 15.833 114.573 15.7979V15.6001C114.775 15.4771 115.012 15.3672 115.285 15.2705C115.557 15.1738 115.821 15.0947 116.076 15.0332C116.366 14.9629 116.669 14.9014 116.985 14.8486L117.038 14.9277C117.038 15.0332 117.016 15.2046 116.972 15.4419C116.928 15.6792 116.875 15.9341 116.814 16.2065C116.752 16.479 116.687 16.7471 116.616 17.0107C116.555 17.2656 116.506 17.4722 116.471 17.6304C116.744 17.2876 117.021 16.9448 117.302 16.6021C117.583 16.2505 117.851 15.9385 118.106 15.666C118.37 15.3936 118.611 15.1738 118.831 15.0068C119.051 14.8311 119.235 14.7432 119.385 14.7432C119.446 14.7432 119.552 14.7739 119.701 14.8354C119.859 14.8882 120.022 14.9761 120.189 15.0991C120.356 15.2134 120.501 15.3628 120.624 15.5474C120.756 15.7231 120.826 15.9385 120.835 16.1934C120.835 16.2812 120.773 16.4834 120.65 16.7998C120.527 17.1162 120.374 17.4941 120.189 17.9336C120.013 18.373 119.82 18.8521 119.609 19.3706C119.398 19.8892 119.2 20.3989 119.016 20.8999C118.84 21.4009 118.69 21.8667 118.567 22.2974C118.444 22.728 118.383 23.0796 118.383 23.3521C118.383 23.4575 118.392 23.5366 118.409 23.5894C118.436 23.6333 118.488 23.6553 118.567 23.6553C118.664 23.6465 118.809 23.5981 119.002 23.5103C119.196 23.4136 119.42 23.2729 119.675 23.0884C119.93 22.9038 120.202 22.6797 120.492 22.416C120.791 22.1436 121.085 21.8271 121.375 21.4668L121.679 21.7305C121.31 22.1963 120.892 22.6401 120.426 23.062C119.969 23.4751 119.517 23.8398 119.068 24.1562C118.62 24.4727 118.198 24.7231 117.803 24.9077C117.407 25.0923 117.086 25.1846 116.84 25.1846C116.796 25.1846 116.739 25.167 116.669 25.1318C116.599 25.0967 116.528 25.0396 116.458 24.9604C116.388 24.8813 116.326 24.7715 116.273 24.6309C116.221 24.4902 116.194 24.3145 116.194 24.1035C116.194 23.998 116.208 23.8662 116.234 23.708C116.26 23.541 116.291 23.374 116.326 23.207C116.361 23.0312 116.396 22.873 116.432 22.7324C116.476 22.583 116.506 22.4731 116.524 22.4028C116.603 22.0952 116.713 21.7524 116.854 21.3745C117.003 20.9878 117.161 20.5879 117.328 20.1748C117.495 19.7617 117.667 19.353 117.842 18.9487C118.018 18.5356 118.176 18.1533 118.317 17.8018C118.458 17.4414 118.572 17.1294 118.66 16.8657C118.748 16.5933 118.792 16.3867 118.792 16.2461C118.792 16.123 118.756 16.0615 118.686 16.0615C118.598 16.0615 118.444 16.1582 118.225 16.3516C118.014 16.5449 117.776 16.7866 117.513 17.0767C117.258 17.3579 116.999 17.6567 116.735 17.9731C116.471 18.2808 116.247 18.5532 116.062 18.7905C115.878 19.3267 115.685 19.8804 115.482 20.4517C115.28 21.0142 115.087 21.5723 114.902 22.126C114.718 22.6709 114.546 23.1895 114.388 23.6816C114.239 24.1738 114.111 24.6133 114.006 25ZM127.611 10.208C127.506 10.4541 127.383 10.7485 127.242 11.0913C127.11 11.4341 126.965 11.8076 126.807 12.2119C126.649 12.6162 126.482 13.0469 126.306 13.5039C126.139 13.9609 125.963 14.4268 125.779 14.9014L127.611 14.8486L127.374 15.4683L125.555 15.4946C125.256 16.2944 124.966 17.0942 124.685 17.894C124.403 18.6851 124.148 19.4233 123.92 20.1089C123.7 20.7944 123.52 21.3965 123.379 21.915C123.248 22.4336 123.182 22.8159 123.182 23.062C123.182 23.2114 123.199 23.3169 123.234 23.3784C123.27 23.4312 123.344 23.4575 123.458 23.4575C123.529 23.4575 123.674 23.396 123.894 23.2729C124.122 23.1411 124.381 22.9565 124.671 22.7192C124.97 22.4819 125.278 22.1963 125.594 21.8623C125.919 21.5283 126.223 21.1592 126.504 20.7549L126.794 21.0317C126.486 21.48 126.113 21.9502 125.673 22.4424C125.243 22.9258 124.799 23.374 124.342 23.7871C123.885 24.1914 123.437 24.5254 122.997 24.7891C122.566 25.0527 122.197 25.1846 121.89 25.1846C121.846 25.1846 121.762 25.1626 121.639 25.1187C121.516 25.0835 121.419 25.0264 121.349 24.9473C121.296 24.877 121.239 24.7275 121.178 24.499C121.107 24.2705 121.072 23.9717 121.072 23.6025C121.072 23.3477 121.143 22.939 121.283 22.3765C121.415 21.814 121.595 21.1636 121.824 20.4253C122.043 19.687 122.294 18.896 122.575 18.0522C122.865 17.1997 123.16 16.356 123.458 15.521L121.942 15.5474L122.153 14.9805L123.643 14.9541L125.291 10.498C125.458 10.4365 125.669 10.3838 125.924 10.3398C126.179 10.2959 126.429 10.2563 126.675 10.2212C126.965 10.186 127.26 10.1553 127.559 10.1289C127.559 10.1465 127.567 10.1597 127.585 10.1685C127.603 10.1772 127.611 10.1904 127.611 10.208ZM127.559 19.9771L128.125 18.25H133.794L133.228 19.9771H127.559ZM136.405 25.1846C136.211 25.1846 136.018 25.123 135.825 25C135.631 24.8682 135.456 24.7056 135.297 24.5122C135.139 24.3101 135.012 24.0903 134.915 23.853C134.81 23.6157 134.757 23.3872 134.757 23.1675C134.757 22.9038 134.792 22.605 134.862 22.271C134.924 21.937 135.007 21.5898 135.113 21.2295C135.209 20.8691 135.319 20.5132 135.442 20.1616C135.565 19.8101 135.684 19.4893 135.798 19.1992C135.904 18.9004 136 18.6455 136.088 18.4346C136.167 18.2236 136.225 18.083 136.26 18.0127C136.436 17.5908 136.708 17.1821 137.077 16.7866C137.455 16.3911 137.864 16.0396 138.303 15.7319C138.751 15.4243 139.2 15.1782 139.648 14.9937C140.105 14.8091 140.505 14.7168 140.848 14.7168C141.129 14.7168 141.357 14.8706 141.533 15.1782C141.709 15.4858 141.797 15.8726 141.797 16.3384C141.797 16.5757 141.74 16.8086 141.625 17.0371C141.52 17.2656 141.379 17.481 141.204 17.6831C141.037 17.8853 140.852 18.0742 140.65 18.25C140.457 18.4258 140.272 18.5796 140.096 18.7114L137.341 20.8208C137.183 21.4185 137.051 21.9502 136.945 22.416C136.849 22.873 136.8 23.1851 136.8 23.3521C136.8 23.6069 136.835 23.8003 136.906 23.9321C136.976 24.064 137.121 24.1299 137.341 24.1299C137.807 24.1299 138.29 23.9014 138.791 23.4443C139.292 22.9785 139.78 22.2358 140.254 21.2163L140.637 21.4668C140.399 22.0205 140.123 22.5259 139.806 22.9829C139.499 23.4399 139.165 23.8311 138.804 24.1562C138.444 24.4814 138.057 24.7363 137.644 24.9209C137.24 25.0967 136.827 25.1846 136.405 25.1846ZM139.885 15.4683C139.709 15.4683 139.521 15.6045 139.318 15.877C139.116 16.1494 138.914 16.5054 138.712 16.9448C138.51 17.3755 138.312 17.8677 138.119 18.4214C137.925 18.9663 137.75 19.5112 137.591 20.0562L139.833 18.2764C139.938 17.8984 140.035 17.5293 140.123 17.1689C140.21 16.7998 140.254 16.5229 140.254 16.3384C140.254 16.2417 140.246 16.145 140.228 16.0483C140.219 15.9429 140.202 15.8462 140.175 15.7583C140.149 15.6704 140.109 15.6001 140.057 15.5474C140.013 15.4946 139.956 15.4683 139.885 15.4683ZM142.588 25C142.491 25.0176 142.386 25.0308 142.271 25.0396C142.069 25.0659 141.806 25.0791 141.48 25.0791C141.331 25.0791 141.173 25.0703 141.006 25.0527C140.839 25.0439 140.676 25.0264 140.518 25L140.426 24.8682C140.47 24.7803 140.549 24.6001 140.663 24.3276C140.769 24.0552 140.896 23.7256 141.045 23.3389C141.186 22.9521 141.344 22.5215 141.52 22.0469C141.687 21.5723 141.854 21.0889 142.021 20.5967C142.188 20.1045 142.351 19.6211 142.509 19.1465C142.667 18.6719 142.803 18.2368 142.917 17.8413C143.041 17.4458 143.137 17.1118 143.208 16.8394C143.287 16.5581 143.326 16.3691 143.326 16.2725C143.326 16.1758 143.313 16.1011 143.287 16.0483C143.269 15.9956 143.251 15.9473 143.234 15.9033C143.208 15.8682 143.181 15.833 143.155 15.7979V15.6001C143.357 15.4771 143.594 15.3672 143.867 15.2705C144.139 15.1738 144.403 15.0947 144.658 15.0332C144.948 14.9629 145.251 14.9014 145.567 14.8486L145.62 14.9277C145.62 15.0332 145.598 15.2046 145.554 15.4419C145.51 15.6792 145.458 15.9341 145.396 16.2065C145.334 16.479 145.269 16.7471 145.198 17.0107C145.137 17.2656 145.088 17.4722 145.053 17.6304C145.326 17.2876 145.603 16.9448 145.884 16.6021C146.165 16.2505 146.433 15.9385 146.688 15.666C146.952 15.3936 147.193 15.1738 147.413 15.0068C147.633 14.8311 147.817 14.7432 147.967 14.7432C148.028 14.7432 148.134 14.7739 148.283 14.8354C148.441 14.8882 148.604 14.9761 148.771 15.0991C148.938 15.2134 149.083 15.3628 149.206 15.5474C149.338 15.7231 149.408 15.9385 149.417 16.1934C149.417 16.2812 149.355 16.4834 149.232 16.7998C149.109 17.1162 148.956 17.4941 148.771 17.9336C148.595 18.373 148.402 18.8521 148.191 19.3706C147.98 19.8892 147.782 20.3989 147.598 20.8999C147.422 21.4009 147.272 21.8667 147.149 22.2974C147.026 22.728 146.965 23.0796 146.965 23.3521C146.965 23.4575 146.974 23.5366 146.991 23.5894C147.018 23.6333 147.07 23.6553 147.149 23.6553C147.246 23.6465 147.391 23.5981 147.584 23.5103C147.778 23.4136 148.002 23.2729 148.257 23.0884C148.512 22.9038 148.784 22.6797 149.074 22.416C149.373 22.1436 149.667 21.8271 149.958 21.4668L150.261 21.7305C149.892 22.1963 149.474 22.6401 149.008 23.062C148.551 23.4751 148.099 23.8398 147.65 24.1562C147.202 24.4727 146.78 24.7231 146.385 24.9077C145.989 25.0923 145.668 25.1846 145.422 25.1846C145.378 25.1846 145.321 25.167 145.251 25.1318C145.181 25.0967 145.11 25.0396 145.04 24.9604C144.97 24.8813 144.908 24.7715 144.855 24.6309C144.803 24.4902 144.776 24.3145 144.776 24.1035C144.776 23.998 144.79 23.8662 144.816 23.708C144.842 23.541 144.873 23.374 144.908 23.207C144.943 23.0312 144.979 22.873 145.014 22.7324C145.058 22.583 145.088 22.4731 145.106 22.4028C145.185 22.0952 145.295 21.7524 145.436 21.3745C145.585 20.9878 145.743 20.5879 145.91 20.1748C146.077 19.7617 146.249 19.353 146.424 18.9487C146.6 18.5356 146.758 18.1533 146.899 17.8018C147.04 17.4414 147.154 17.1294 147.242 16.8657C147.33 16.5933 147.374 16.3867 147.374 16.2461C147.374 16.123 147.338 16.0615 147.268 16.0615C147.18 16.0615 147.026 16.1582 146.807 16.3516C146.596 16.5449 146.358 16.7866 146.095 17.0767C145.84 17.3579 145.581 17.6567 145.317 17.9731C145.053 18.2808 144.829 18.5532 144.645 18.7905C144.46 19.3267 144.267 19.8804 144.064 20.4517C143.862 21.0142 143.669 21.5723 143.484 22.126C143.3 22.6709 143.128 23.1895 142.97 23.6816C142.821 24.1738 142.693 24.6133 142.588 25ZM157.564 8.66553C157.564 8.47217 157.512 8.34033 157.406 8.27002C157.31 8.19092 157.187 8.15576 157.037 8.16455C156.888 8.17334 156.725 8.2085 156.549 8.27002C156.374 8.32275 156.211 8.38428 156.062 8.45459L155.89 8.09863C156.795 7.65918 157.529 7.35156 158.092 7.17578C158.663 7 159.054 6.91211 159.265 6.91211C159.327 6.91211 159.397 6.93848 159.476 6.99121C159.564 7.03516 159.643 7.10107 159.713 7.18896C159.784 7.27686 159.845 7.37793 159.898 7.49219C159.951 7.59766 159.977 7.70752 159.977 7.82178C159.977 7.89209 159.876 8.18652 159.674 8.70508C159.472 9.21484 159.23 9.88721 158.949 10.7222C158.782 11.2144 158.597 11.7549 158.395 12.3437C158.193 12.9326 157.978 13.5479 157.749 14.1895C157.529 14.8223 157.305 15.4683 157.077 16.1274C156.857 16.7866 156.642 17.4282 156.431 18.0522C156.22 18.6763 156.018 19.2739 155.824 19.8452C155.64 20.4077 155.477 20.9131 155.336 21.3613C155.205 21.8096 155.099 22.1919 155.02 22.5083C154.941 22.8159 154.901 23.0269 154.901 23.1411C154.901 23.2993 154.963 23.3784 155.086 23.3784C155.183 23.3696 155.328 23.3213 155.521 23.2334C155.714 23.1367 155.934 22.9961 156.18 22.8115C156.435 22.627 156.708 22.4028 156.998 22.1392C157.296 21.8667 157.595 21.5503 157.894 21.1899L158.184 21.4668C157.797 21.9326 157.384 22.3853 156.945 22.8247C156.505 23.2554 156.07 23.6377 155.64 23.9717C155.218 24.3057 154.818 24.5737 154.44 24.7759C154.071 24.978 153.763 25.0791 153.517 25.0791C153.394 25.0791 153.293 25.0264 153.214 24.9209C153.135 24.8066 153.069 24.666 153.016 24.499C152.972 24.332 152.941 24.1562 152.924 23.9717C152.906 23.7871 152.897 23.6157 152.897 23.4575C152.897 23.3872 152.906 23.3081 152.924 23.2202C152.95 23.1235 152.977 23.0049 153.003 22.8643C152.713 23.1719 152.396 23.4663 152.054 23.7476C151.72 24.02 151.395 24.2617 151.078 24.4727C150.771 24.6748 150.494 24.8374 150.248 24.9604C149.993 25.0747 149.812 25.1318 149.707 25.1318C149.61 25.1318 149.536 25.0879 149.483 25C149.421 24.9209 149.377 24.8242 149.351 24.71C149.316 24.5869 149.294 24.4639 149.285 24.3408C149.268 24.209 149.259 24.0947 149.259 23.998C149.259 23.6904 149.294 23.3389 149.364 22.9434C149.435 22.5479 149.522 22.1392 149.628 21.7173C149.725 21.2954 149.839 20.8823 149.971 20.478C150.094 20.0649 150.212 19.6914 150.327 19.3574C150.441 19.0146 150.542 18.729 150.63 18.5005C150.718 18.2632 150.779 18.1094 150.814 18.0391C150.973 17.6963 151.214 17.3535 151.54 17.0107C151.865 16.668 152.247 16.334 152.687 16.0088C153.126 15.6836 153.605 15.376 154.124 15.0859C154.651 14.7871 155.187 14.519 155.732 14.2817C155.978 13.561 156.211 12.8799 156.431 12.2383C156.659 11.5879 156.857 11.0122 157.024 10.5112C157.191 10.0103 157.323 9.59717 157.419 9.27197C157.516 8.94678 157.564 8.74463 157.564 8.66553ZM153.148 22.0073C153.306 21.5151 153.478 20.9878 153.662 20.4253C153.847 19.854 154.036 19.2695 154.229 18.6719C154.431 18.0742 154.638 17.4678 154.849 16.8525C155.06 16.2373 155.266 15.6309 155.468 15.0332C155.222 15.1035 154.976 15.2046 154.73 15.3364C154.493 15.4595 154.304 15.5737 154.163 15.6792C153.935 15.855 153.702 16.1538 153.464 16.5757C153.236 16.9888 153.016 17.459 152.805 17.9863C152.594 18.5049 152.396 19.0454 152.212 19.6079C152.036 20.1704 151.882 20.6978 151.75 21.1899C151.619 21.6733 151.513 22.0864 151.434 22.4292C151.364 22.7632 151.329 22.9609 151.329 23.0225C151.329 23.0928 151.333 23.1587 151.342 23.2202C151.359 23.2729 151.403 23.2993 151.474 23.2993C151.544 23.2993 151.645 23.2642 151.777 23.1938C151.909 23.1235 152.049 23.0312 152.199 22.917C152.357 22.7939 152.52 22.6533 152.687 22.4951C152.854 22.3369 153.007 22.1743 153.148 22.0073Z" fill="url(#paint0_linear)"/>
<defs>
<linearGradient id="paint0_linear" x1="211.146" y1="17.0438" x2="-4.51041" y2="17.0438" gradientUnits="userSpaceOnUse">
<stop stop-color="#319795"/>
<stop offset="1" stop-color="#4C51BF"/>
</linearGradient>
</defs>
</svg>
